<svg xmlns="http://www.w3.org/2000/svg" width="35" height="35" viewBox="0 0 35 35" fill="none" stroke="black" stroke-width="2">
  <g clip-path="url(#clip0_147_1106)">
    <path d="M10.5 6h9.75M10.5 6a1.5 1.5 0 1 1-3 0m3 0a1.5 1.5 0 1 0-3 0M3.75 6H7.5m3 12h9.75m-9.75 0a1.5 1.5 0 0 1-3 0m3 0a1.5 1.5 0 0 0-3 0m-3.75 0H7.5m9-6h3.75m-3.75 0a1.5 1.5 0 0 1-3 0m3 0a1.5 1.5 0 0 0-3 0m-9.75 0h9.75" />
  </g>
  <defs>
    <clipPath id="clip0_147_1106">
      <rect width="35" height="35" fill="white" />
    </clipPath>
  </defs>
</svg>
